<?xml version="1.0" encoding="UTF-8"?>
<svg id="Capa_2" data-name="Capa 2" xmlns="http://www.w3.org/2000/svg" viewBox="0 0 362.4 461.6">
  <defs>
    <style>
      .cls-1 {
        stroke-linecap: round;
      }

      .cls-1, .cls-2 {
        fill: none;
        stroke: #052955;
        stroke-miterlimit: 10;
        stroke-width: 45px;
      }

      .cls-3 {
        fill: #052955;
      }

      .cls-4 {
        fill: #aaa9af;
      }
    </style>
  </defs>
  <g id="Capa_1-2" data-name="Capa 1">
    <path class="cls-4" d="m362.4,206.98c0,23.39-18.6,42.42-41.82,43.12-4.14,46.65-32.5,85.99-72.48,105.96l-.06,46.3c0,32.72-26.53,59.24-59.25,59.24-16.36,0-31.17-6.63-41.89-17.35-10.72-10.72-17.35-25.53-17.35-41.89v-46.3c-16.54-8.37-31.08-20.14-42.7-34.37-20.15-18.86-34.63-43.69-40.64-71.68-1.01.07-2.04.11-3.07.11-23.83,0-43.14-19.31-43.14-43.14s19.31-43.14,43.14-43.14v-25.78C43.14,61.81,104.95,0,181.2,0c38.12,0,72.64,15.45,97.62,40.44,24.99,24.98,40.44,59.49,40.44,97.62v25.78c23.83,0,43.14,19.31,43.14,43.14Z"/>
    <g>
      <circle class="cls-3" cx="179.55" cy="296.09" r="24.67"/>
      <path class="cls-1" d="m180.53,195.78c32.07.37,58.37-25.33,58.74-57.41.37-32.07-25.33-58.37-57.41-58.74-32.07-.37-58.37,25.33-58.74,57.41"/>
      <path class="cls-2" d="m183.32,198.04v.02l-.32,27.26c-.01,1.23-1.02,2.22-2.25,2.2-1.24-.01-2.23-1.02-2.21-2.25l.31-27.26c.01-1.23,1.03-2.22,2.26-2.21,1.22.02,2.21,1.02,2.21,2.24Z"/>
    </g>
  </g>
</svg>