<?xml version="1.0" encoding="UTF-8"?>
<svg id="Capa_2" data-name="Capa 2" xmlns="http://www.w3.org/2000/svg" viewBox="0 0 352.06 362">
  <defs>
    <style>
      .cls-1 {
        fill: #eefaff;
      }

      .cls-2 {
        fill: #052955;
      }
    </style>
  </defs>
  <g id="Capa_1-2" data-name="Capa 1">
    <path class="cls-2" d="m166.87,362c-13.37-1-26.54-3.09-39.5-6.83-19.91-5.75-38.03-15.23-54.71-27.51-14.87-10.95-27.67-24.31-38.53-39.46-11.53-16.09-20.33-33.69-26.09-52.86-3.3-11-5.53-22.16-6.87-33.6-.63-5.37-.28-10.69-.82-16.01-.45-3.53-.45-7.07,0-10.6-.09-19.01,3.39-37.44,9.67-55.18,6.74-19.06,16.24-36.63,28.86-52.47,11.69-14.67,24.93-27.45,40.37-37.73,18.93-12.6,39.29-21.66,61.64-25.84,8.63-1.62,17.2-3.31,25.99-3.52,6.03-.52,12.06-.52,18.09,0,30.12,1.94,58.09,10.64,83.92,26.99,14.44,9.14,27.45,19.98,38.49,33,19.55,23.03,33.2,49.4,39.79,79.45,2.11,9.62,3.77,19.25,4.25,29.1.81,1.42-.09,3.09.66,4.52,0,4.95,0,9.91,0,14.86-.75,1.42.15,3.1-.66,4.51-.97,19.01-5.36,37.24-11.99,54.95-5.76,15.38-13.55,29.66-23.24,42.7-10.61,14.26-23.03,26.79-37.19,37.42-14.53,10.9-30.45,19.15-47.4,25.04-10.8,3.75-21.92,6.72-33.45,7.48-4.41.29-8.79,1.05-13.18,1.6-6.03-.56-12.05-.56-18.08,0Z"/>
    <path class="cls-1" d="m227.99,105.5v-40.37h-44.28s-35.42,1.03-35.59,39.17c-.12,27.36-.07,34.21-.03,35.89,0,.29-.23.53-.52.53h-23.51s0,39.69,0,39.69h19.59c2.01,0,3.64,1.63,3.64,3.64v112.84h45.95v-112.54c0-2.63,2.13-4.76,4.76-4.76h26.98l3.01-38.69h-31.96c-1.82,0-3.29-1.48-3.28-3.3l.15-22.82s-1.17-9.28,9.69-9.28h25.4Z"/>
  </g>
</svg>