<?xml version="1.0" encoding="UTF-8"?>
<svg id="Capa_2" data-name="Capa 2" xmlns="http://www.w3.org/2000/svg" viewBox="0 0 1712.62 626.47">
  <defs>
    <style>
      .cls-1 {
        fill: #fdc831;
      }

      .cls-2 {
        fill: #031c39;
      }

      .cls-3 {
        fill: #0b7ab0;
      }
    </style>
  </defs>
  <g id="Capa_1-2" data-name="Capa 1">
    <g>
      <g>
        <path class="cls-3" d="m642.51,9.79c0,21.48-7.08,32.22-21.21,32.22h-61.59l-34.67,247.6h-51.4l34.67-247.6h-77.09l5.3-37.93h205.58l.41,5.71Z"/>
        <path class="cls-3" d="m659.56,4.08h51.4l-39.97,285.53h-51.4L659.56,4.08Z"/>
        <path class="cls-3" d="m801.63,41.2l-11.83,83.21h104.83l-5.3,36.71h-104.42l-13.05,91.37h127.26c-1.91,14.42-4.63,24.21-8.16,29.37-3.54,5.17-9.52,7.75-17.95,7.75h-157.86L755.13,4.08h175.8l-5.3,37.12h-124Z"/>
        <path class="cls-3" d="m1211.12,127.67c0,47.05-3.26,101.02-9.79,161.94h-52.21c4.62-44.05,7.95-81.71,9.99-112.99,2.04-31.27,3.06-60.91,3.06-88.92l-.41-23.66c-15.77,31.27-29.51,60.03-41.2,86.27-11.7,26.25-25.56,59.49-41.61,99.73h-40.38c-4.08-39.97-8.3-73.35-12.65-100.14-4.35-26.78-10.34-56.22-17.95-88.31-11.42,35.63-21.01,70.71-28.76,105.24-7.75,34.54-15.03,75.46-21.82,122.78h-50.99c8.97-57.65,19.44-109.11,31.41-154.39,11.96-45.28,26.65-88.99,44.05-131.14h57.51c9.24,37.8,15.97,67.58,20.19,89.33,4.21,21.76,7.68,44.87,10.4,69.34,12.5-31.54,24.13-58.53,34.88-80.97,10.74-22.43,24.4-48.34,40.99-77.7h57.92c4.89,41.06,7.34,82.26,7.34,123.59Z"/>
        <path class="cls-3" d="m1433.01,24.68c17.13,13.73,25.7,33.93,25.7,60.57,0,34-10.88,60.37-32.63,79.13-21.76,18.76-52.21,28.15-91.37,28.15h-39.97l-13.46,97.08h-51.8L1269.45,4.08h87.7c33.45,0,58.74,6.87,75.87,20.6Zm-44.05,112.38c11.42-10.87,17.13-28.15,17.13-51.8,0-15.23-4.63-26.44-13.87-33.65-9.25-7.2-23.66-10.81-43.24-10.81h-33.04l-15.5,112.58h34.26c24.74,0,42.83-5.44,54.25-16.32Z"/>
        <path class="cls-3" d="m1486.77,262.89c-19.85-20.53-29.78-49.15-29.78-85.86s5.84-66.83,17.54-93.61c11.69-26.78,28.28-47.38,49.76-61.8,21.48-14.41,46.63-21.62,75.46-21.62,35.9,0,63.49,9.86,82.8,29.57,19.31,19.72,28.96,47.79,28.96,84.23s-5.71,68.6-17.13,95.65c-11.42,27.06-27.81,47.86-49.15,62.41-21.35,14.55-46.44,21.82-75.26,21.82-35.63,0-63.37-10.26-83.21-30.8Zm149.29-44.46c15.5-24.33,23.25-59.08,23.25-104.22,0-24.74-5.17-43.5-15.5-56.29-10.34-12.78-25.43-19.17-45.28-19.17-28.55,0-50.52,11.97-65.88,35.9-15.37,23.93-23.05,58.06-23.05,102.38,0,25.02,5.23,44.26,15.7,57.72,10.46,13.46,25.35,20.19,44.67,20.19,28.55,0,50.58-12.17,66.08-36.51Z"/>
      </g>
      <path class="cls-2" d="m1696.72,625.65c-9.61,1.1-19.9.24-28.96-3.39-5.19-2.08-12.62-5.46-15.08-10.88-8.93-20.03-17.69-40.17-27.77-59.66-10.07-19.47-16.55-35.11-27.4-54.79-6.2.14-14.24-.01-20.45-.01v128.83h-55.29v-286.43h85.45c32.07,0,56.72,6.82,73.95,20.46,17.23,13.64,25.85,33.15,25.85,58.52,0,15.56-3.77,28.9-11.31,40.03-7.54,11.13-30.54,24.95-44.91,30.69,5.8,8.57,19.64,36.14,25.58,51.29.34.73.68,1.46,1.02,2.19.92,1.98,1.84,3.95,2.76,5.93,1.36,2.91,2.71,5.82,4.07,8.73,1.65,3.53,3.29,7.07,4.94,10.6,1.79,3.85,3.58,7.69,5.37,11.54,1.79,3.84,3.58,7.69,5.37,11.53,1.64,3.53,3.29,7.06,4.93,10.59,1.35,2.91,2.71,5.81,4.06,8.72.92,1.97,1.83,3.94,2.75,5.91.34.72.69,1.44,1,2.17,0,0-7.04,6.43-15.9,7.44Zm-93.11-167.51c16.75,0,28.84-3.11,36.26-9.33,7.41-6.22,11.13-16.39,11.13-30.52s-3.72-24.35-11.13-30.69c-7.42-6.34-19.51-9.51-36.26-9.51h-26.57v80.05h26.57Z"/>
      <path class="cls-1" d="m325.22,151.05v-8c0-24.02,19.48-43.5,43.5-43.5h8.01c24.02,0,43.49,19.47,43.49,43.49v8.02c0,24.02-19.47,43.49-43.49,43.49h-8.01c-24.02,0-43.5-19.48-43.5-43.5Z"/>
      <path class="cls-2" d="m177.6,253.55c0,7.72.13,15.88-2.54,23.23-5.54,15.23-22.77,13.47-35.79,13.47-14.15,0-28.31,0-42.46,0-16.33,0-32.65,0-48.98,0-12.55,0-25.1,0-37.66,0-.51,0-10.09,0-10.09,0V3.83l177.52.93v36.7l-121.7-.99-.76,94.15,81.81-.34v36.7l-81.81.34v81.34s122.45.89,122.45.89Z"/>
      <path class="cls-2" d="m283.59,392.89v78.84h82.58v36.7h-82.58v81.34s122.47,0,122.47,0c0,14.08,0,33.28-18.59,36.7h-158.93v-242.38l55.05,8.8Z"/>
      <path class="cls-2" d="m499.17,590.9c-28.35-33.17-34.66-87.64-31.35-129.75,5.02-63.79,50.6-122.82,117.7-122.82,15.08,0,29.62,2.6,43.62,7.8,14,5.2,25.07,12.15,33.21,20.85-1.2,7.74-4.19,15-8.98,21.77-4.17,5.9-9.76,12.05-17.64,9.43-4.13-1.37-7.51-4.35-11.03-6.93-19.73-14.45-48.28-16.73-69.77-4.24-28.32,16.45-31.16,52.58-31.16,82.26,0,35.75,5.78,94.85,42.97,112.37,15.61,7.35,33.78,4.51,49.11-2.21,9.93-4.35,18.61-10.64,26.02-18.86,5.51,2.67,9.93,6.35,13.28,11.07,3.35,4.71,5.03,9.61,5.03,14.69,0,7.02-3.41,13.55-10.23,19.59-6.82,6.05-15.98,10.88-27.46,14.51-11.49,3.62-23.82,5.44-36.98,5.44-36.19,0-66.18-11.38-86.35-34.98Z"/>
      <path class="cls-2" d="m724.14,602.36c-16.88-15.67-25.31-39.07-25.31-70.18v-192.36h55.29v200.26c0,14.84,3.89,26.27,11.67,34.29,7.78,8.02,18.96,12.02,33.57,12.02,29.91,0,44.88-15.43,44.88-46.31v-200.26h55.29v192.36c0,31.59-8.26,55.11-24.77,70.54-16.52,15.44-41.65,23.16-75.39,23.16s-58.34-7.84-75.21-23.52Z"/>
      <path class="cls-2" d="m939.14,339.18h55.28v286.71h-55.28v-286.71Z"/>
      <path class="cls-2" d="m1433.53,528.56h-97.65c-3.35,15.8-6.82,71.63-10.41,97.24h-53.85c9.09-86.88,37.57-205.77,85.44-286.43h55.65c47.63,80.18,75.98,199.08,85.08,286.43h-53.85c-3.59-25.61-7.07-81.44-10.41-97.24Zm-8.61-39.49c-10.05-39.49-23.46-75.75-40.21-108.78-16.76,33.03-30.16,69.29-40.21,108.78h80.42Z"/>
      <path class="cls-2" d="m284.16,253.43s121.89.14,121.89.14c0,17.35-1.02,31.83-20.23,36.7h-156.99V3.83l55.28-.14.05,249.73Z"/>
      <path class="cls-2" d="m1192.24,354.04c41.74,26.18,57.1,79.84,56.7,128.81-.28,34.91-4.75,71.34-26.17,100.43-21.57,29.29-60,42.6-95.3,42.6h-83.88v-286.71h83.88c25.01,0,47.23,3.86,64.77,14.86Zm-16.07,212.46c12.86-15.13,19.74-46.38,19.3-89.93-.59-58.35-24.78-100.68-74.31-100.68h-22.51v213.3h22.51c23.81,0,42.16-7.56,55.01-22.68Z"/>
      <path class="cls-2" d="m148.65,354.54c41.74,26.18,57.1,79.84,56.7,128.81-.28,34.91-4.75,71.34-26.17,100.43-21.57,29.29-60,42.6-95.3,42.6H0v-286.71h83.88c25.01,0,47.23,3.86,64.77,14.86Zm-16.07,212.46c12.86-15.13,19.74-46.38,19.3-89.93-.59-58.35-24.78-100.68-74.31-100.68h-22.51v213.3h22.51c23.81,0,42.16-7.56,55.01-22.68Z"/>
      <path class="cls-1" d="m469.3,314.16s0,.05,0,.08c-.01,4.26-1.8,8.35-4.55,11.59-2.89,3.41-5.88,6.73-8.93,9.97-43.81,45.78-105.52,74.34-173.84,74.34-18.39,0-36.29-2.08-53.45-6.02v-46.1c14.71,2.82,29.84,4.32,45.35,4.32,55.59,0,106.8-18.92,147.52-50.63,8.53-6.61,16.63-13.8,24.14-21.53,13.11.11,23.77,10.82,23.77,23.98Z"/>
    </g>
  </g>
</svg>