<?xml version="1.0" encoding="UTF-8"?>
<svg id="Capa_2" data-name="Capa 2" xmlns="http://www.w3.org/2000/svg" viewBox="0 0 733.55 292.77">
  <defs>
    <style>
      .cls-1 {
        letter-spacing: -.08em;
      }

      .cls-2 {
        letter-spacing: -.04em;
      }

      .cls-3 {
        letter-spacing: -.06em;
      }

      .cls-4 {
        letter-spacing: -.08em;
      }

      .cls-5 {
        fill: #fdc831;
      }

      .cls-6 {
        letter-spacing: -.08em;
      }

      .cls-7 {
        fill: #0b7ab0;
        font-family: Krub-SemiBoldItalic, Krub;
        font-size: 174.7px;
        font-style: italic;
        font-weight: 600;
      }

      .cls-8 {
        fill: #031c39;
      }

      .cls-9 {
        letter-spacing: -.07em;
      }
    </style>
  </defs>
  <g id="Capa_1-2" data-name="Capa 1">
    <g>
      <text class="cls-7" transform="translate(177.18 148.49)"><tspan class="cls-6" x="0" y="0">T</tspan><tspan class="cls-1" x="78.58" y="0">I</tspan><tspan class="cls-4" x="126.32" y="0">E</tspan><tspan class="cls-9" x="210.69" y="0">M</tspan><tspan class="cls-3" x="345.55" y="0">P</tspan><tspan class="cls-2" x="442.3" y="0">O</tspan></text>
      <path class="cls-8" d="m726.69,292.42c-4.12.47-8.52.1-12.4-1.45-2.22-.89-5.41-2.34-6.46-4.66-3.82-8.58-7.57-17.2-11.89-25.55-4.31-8.34-7.09-15.04-11.74-23.47-2.65.06-6.1,0-8.76,0v55.18h-23.68v-122.67h36.6c13.73,0,24.29,2.92,31.67,8.76,7.38,5.84,11.07,14.2,11.07,25.06,0,6.66-1.61,12.38-4.84,17.14-3.23,4.77-13.08,10.69-19.23,13.15,2.49,3.67,8.41,15.48,10.95,21.97.15.31.29.62.44.94.39.85.79,1.69,1.18,2.54.58,1.25,1.16,2.49,1.74,3.74.7,1.51,1.41,3.03,2.11,4.54.77,1.65,1.53,3.29,2.3,4.94.77,1.65,1.53,3.29,2.3,4.94.7,1.51,1.41,3.02,2.11,4.54.58,1.24,1.16,2.49,1.74,3.73.39.84.79,1.69,1.18,2.53.14.31.29.62.43.93,0,0-3.01,2.75-6.81,3.19Zm-39.88-71.74c7.17,0,12.35-1.33,15.53-4,3.18-2.67,4.77-7.02,4.77-13.07s-1.59-10.43-4.77-13.15c-3.18-2.72-8.36-4.07-15.53-4.07h-11.38v34.29h11.38Z"/>
      <path class="cls-5" d="m139.29,89.15v-3.43c0-10.29,8.34-18.63,18.63-18.63h3.43c10.29,0,18.63,8.34,18.63,18.63v3.44c0,10.29-8.34,18.63-18.63,18.63h-3.43c-10.29,0-18.63-8.34-18.63-18.63Z"/>
      <path class="cls-8" d="m76.07,133.05c0,3.31.06,6.8-1.09,9.95-2.37,6.52-9.75,5.77-15.33,5.77-6.06,0-12.12,0-18.19,0-6.99,0-13.99,0-20.98,0-5.38,0-10.75,0-16.13,0-.22,0-4.32,0-4.32,0V26.1l76.03.4v15.72l-52.12-.42-.32,40.32,35.04-.15v15.72l-35.04.15v34.84s52.45.38,52.45.38Z"/>
      <path class="cls-8" d="m121.46,192.73v33.77h35.37v15.72h-35.37v34.84s52.45,0,52.45,0c0,6.03,0,14.25-7.96,15.72h-68.07v-103.81l23.58,3.77Z"/>
      <path class="cls-8" d="m213.79,277.53c-12.14-14.21-14.85-37.54-13.43-55.57,2.15-27.32,21.67-52.6,50.41-52.6,6.46,0,12.69,1.11,18.68,3.34,6,2.23,10.74,5.2,14.22,8.93-.51,3.32-1.79,6.43-3.85,9.33-1.79,2.53-4.18,5.16-7.55,4.04-1.77-.59-3.21-1.86-4.72-2.97-8.45-6.19-20.68-7.17-29.88-1.82-12.13,7.04-13.34,22.52-13.34,35.23,0,15.31,2.47,40.62,18.4,48.13,6.69,3.15,14.47,1.93,21.03-.94,4.25-1.86,7.97-4.56,11.15-8.08,2.36,1.14,4.25,2.72,5.69,4.74,1.44,2.02,2.15,4.12,2.15,6.29,0,3.01-1.46,5.8-4.38,8.39-2.92,2.59-6.84,4.66-11.76,6.22-4.92,1.55-10.2,2.33-15.84,2.33-15.5,0-28.34-4.87-36.98-14.98Z"/>
      <path class="cls-8" d="m310.14,282.44c-7.23-6.71-10.84-16.73-10.84-30.06v-82.39h23.68v85.77c0,6.36,1.67,11.25,5,14.68,3.33,3.44,8.12,5.15,14.38,5.15,12.81,0,19.22-6.61,19.22-19.83v-85.77h23.68v82.39c0,13.53-3.54,23.6-10.61,30.21-7.07,6.61-17.84,9.92-32.29,9.92s-24.99-3.36-32.21-10.07Z"/>
      <path class="cls-8" d="m402.22,169.72h23.68v122.79h-23.68v-122.79Z"/>
      <path class="cls-8" d="m613.97,250.83h-41.82c-1.44,6.77-2.92,30.68-4.46,41.65h-23.06c3.89-37.21,16.09-88.13,36.59-122.67h23.83c20.4,34.34,32.54,85.26,36.44,122.67h-23.06c-1.54-10.97-3.03-34.88-4.46-41.65Zm-3.69-16.91c-4.31-16.91-10.05-32.44-17.22-46.59-7.18,14.15-12.92,29.68-17.22,46.59h34.44Z"/>
      <path class="cls-8" d="m121.7,133s52.21.06,52.21.06c0,7.43-.44,13.63-8.67,15.72h-67.24V26.1l23.68-.06.02,106.96Z"/>
      <path class="cls-8" d="m510.62,176.09c17.87,11.21,24.45,34.2,24.28,55.17-.12,14.95-2.03,30.55-11.21,43.01-9.24,12.54-25.7,18.24-40.81,18.24h-35.92v-122.79h35.92c10.71,0,20.23,1.65,27.74,6.37Zm-6.88,90.99c5.51-6.48,8.45-19.86,8.26-38.52-.25-24.99-10.61-43.12-31.83-43.12h-9.64v91.36h9.64c10.2,0,18.06-3.24,23.56-9.72Z"/>
      <path class="cls-8" d="m63.66,176.3c17.87,11.21,24.45,34.2,24.28,55.17-.12,14.95-2.03,30.55-11.21,43.01s-25.7,18.24-40.81,18.24H0v-122.79h35.92c10.71,0,20.23,1.65,27.74,6.37Zm-6.88,90.99c5.51-6.48,8.45-19.86,8.26-38.52-.25-24.99-10.61-43.12-31.83-43.12h-9.64v91.36h9.64c10.2,0,18.06-3.24,23.56-9.72Z"/>
      <path class="cls-5" d="m201,159.01s0,.02,0,.03c0,1.82-.77,3.57-1.95,4.96-1.24,1.46-2.52,2.88-3.82,4.27-18.76,19.61-45.19,31.84-74.45,31.84-7.87,0-15.54-.89-22.89-2.58v-19.74c6.3,1.21,12.78,1.85,19.42,1.85,23.81,0,45.74-8.1,63.18-21.68,3.65-2.83,7.12-5.91,10.34-9.22,5.61.05,10.18,4.63,10.18,10.27Z"/>
    </g>
  </g>
</svg>