<?xml version="1.0" encoding="UTF-8"?>
<svg id="Capa_2" data-name="Capa 2" xmlns="http://www.w3.org/2000/svg" viewBox="0 0 1060.82 1017.34">
  <defs>
    <style>
      .cls-1 {
        fill: #727272;
      }

      .cls-2 {
        fill: #a4a4a4;
      }

      .cls-3 {
        fill: #747474;
      }

      .cls-4 {
        fill: #1d2243;
      }

      .cls-5 {
        fill: #606060;
      }

      .cls-6 {
        fill: #595959;
      }

      .cls-7 {
        fill: #c6c6c6;
      }
    </style>
  </defs>
  <g id="Capa_1-2" data-name="Capa 1">
    <path class="cls-4" d="m784.63,492.58c-.59,1.57-19.57,17.48-19.84,18.82-.05,6,1.11,10.82-5.39,13.92-.76,2.6.02,5.2-3.39,6.09,2.98,3.87,4.14,7.42,2.92,13.79,10.24,3.84,1.74,15.86-2.52,3.33-11-5.08-35.74-23.11-43.92-20.76-3.83,7.11-14.3,4.49-20.32,5.82,1.95-11.11-3.66-7.23-11.15-12.09-6.71-12.03-8.53,1.11-14.66-4.97-18.76-2.42,5.83-23.08-37.7-23.95-13.64-8.44-4.33-17.68-14.44-17.49-8.73-19.92-18.05-9.99-35.25-11.17-3.26-12.66,11.4-13.32,16.98-20.68,2.15-5.63-3.21-9.71,6.26-8.36-4.55-14.39-8.29-7.7-.01-23.21,2.17-4.85,23.89-11.63,27.09-5.84,7.45,2.14,3.54-3.46,5.16-5.48,4.52-.55,8.17-2.39,11.29-6.1.65-3.25-.01-7.31-1.53-11.66-22.87-.06-41.39-18.62-41.39-41.5s18.58-41.5,41.5-41.5,41.5,18.58,41.5,41.5c0,9.45-3.16,18.17-8.48,25.14,11.17,6.58,20.85,12.11,25.94,14.01,27.88,20.5,66.8,7.44,97.75,10.99,8.29.95,14.08,8.79,12.65,17.01-.01.06-.02.11-.03.16-6.83,4.51-5.92,3.92-2.46,14.88,19.02,28.66-30.54,43.1-26.56,69.3Z"/>
    <path class="cls-6" d="m689.28,159.13c-9.93-10.45,6.45-32.63-16.37-18.16-4.29,2.72-8.87,4.9-13.58,6.79-1.73.7-3.4,1.68-4.99,2.79-4.22,2.97-9.29,4.17-14.42,4.67-.22.02-.44.06-.65.11-8.14,1.91-16.64.53-23.07-4.81-1.41-1.17-2.87-2.3-4.37-3.38-4.94-3.54-8.58-8.41-11.56-13.71-.59-1.06-1.65-1.27-3.91.26-3.34,6.42-5.31,3.66-9.05,4.79-4.18,1.27-8.53,1.85-12.85,2.5-2.05.31-4.17,1.29-6.98,1.9-1.28.28-2.57-.36-3.23-1.48-.17-.28-.33-.55-.49-.81-3.81-7.57-11.39-12.75-20.13-12.75-12.56,0-22.75,10.66-22.75,23.81s10.18,23.81,22.75,23.81c2.41,0,4.72-.4,6.9-1.12-4.51,69.12,2.02,209.15-2.75,207.87.95,10.24-11.77,6.31-9.05,17.37,14,10.11,67.94,7.75,60.68-21.16,5.09-3.57-4.83-9.02-.59-15.84,2-8.41-11.95-16.17,4.38-16.17,29.11.48,59.5-37.94,48.35-68.96-24.91-26.8,13.79-30.21,5.91-58.2-4.2-4.04-6.4-10.69-.12-14.63-8.3-13.6,5.84-30.74,20.33-36.8,7.03-.56,26.72-.55,11.61-8.71Z"/>
    <path class="cls-1" d="m741.33,163.12c37.41,83.25,92.37,184.53,170.52,233.65,21.57,18.5,39.81,78.93,69.21,75.15,2.39-.85,2.11,2.65,1.79,6.44-.52,6.07,1.42,12.2,5.67,16.58,13.55,13.97,41.82,3.53,54.29,17.91,4.17,4.81,8.85,9.14,13.59,13.39,3.31,2.97,5.5,5.6,3.87,6.04-6.83,1.84-12.77,6-15.58,12.49-2.14,4.95-4.52,5.9-11.68,4.03-6.39-1.67-11.56-6.18-14.61-12.03s-8.18-5.44-13.28-10.02c-8.96-8.05-20.9-12.27-32.87-10.93-8.54.96-14.31,4.62-9.42,13.06.86,1.49,1.25,3.26.88,4.94-.04.17-.07.34-.09.51-.84,7.19-4.8,13.59-9.97,18.67-24.9,24.44-5.3,104.86-10.4,128.63-25.19,9.81-17.5-24.86-38.62-20.21-11.21-9.95-2.84-34.64-24.1-35.02-5.91-8.12-8.15-21.97-20.4-20.55-11.02,12.73-30.41-11.55-41.29-14.25-6.56,12.36-25.6,15.24-32.32,2.95-17.42.63-19.43-38.87-27.59-49.34-9.2-10.96-1.4-27.05,9.05-39.76,6.51-7.93,11.68-16.82,15.49-26.35,8.25-20.67,43.28-32.15,27.72-55.81-6.83-4.1-12.32-8.57-3.36-12.7,18.71-28.32-54.66-13.01-77.91-19.24-8.52-1.23-17.56-3.61-26.8-6.72-38.31-12.88-61.93-52.46-53.37-91.97.98-4.52.89-9.33-.82-14.53-8.47-10.12-10.57-19.75-6.02-28.23,7.04-13.1,10.67-27.75,9.4-42.56-.24-2.81-.4-5.62-.42-8.43-.06-15.67,10.22-29.76,25.39-33.7,4.61-1.2,9.06-1.32,12.51.24.96.44,2.17.11,2.6-.86,1.1-2.47-4.84-3.83-6.29-4.76-6.25-4.03-8.94-15.01-6.4-20,4.41-8.63,13.93-3.5,18.67-4.05,5.71-.66,11.68-2.44,13.53-8.55,1.4-4.64-.7-10.44-1.88-14.92-1.48-5.63-3.59-11.46-3.86-17.32-.07-1.59-.1-3.85,1.41-4.85,2.91-1.91,7.38,1.39,9.56,3.14,1.94,1.57,3.25,3.76,4.52,5.89,3.19,5.32,5.81,11.01,8.13,16.77.8,1.98,9.28,24.84,1.42,21.44-.07-.03-.24-.07-.29-.13-4.24-4.91-2.17-22.59-9.69-19.48-5.08,8.48,12.62,22.93,5.26,32.31-.84,5,4.86-.51,5.9,3.02.19.25.37.4.52.46,3.35,1.5,6.94,6.17,8.44,9.52Z"/>
    <path class="cls-5" d="m598.71,374.25c10.14,24.59-57.99,39.6-57.47,17.12-12.2,37.49-67.43,9.85-94.41,27.57-.86.57-1.75,1.1-2.67,1.56-6.85,3.45-9.77,7.07-11.53,10.29-4.44,8.09-3.97,17.81.19,26.05,1.4,2.76.76,5.47-4.68,8-7.03-1.47-13.07,1.29-11.25,7.21,1.37,4.45,2.46,9,2.39,13.65-.03,2.23.21,4.44,1.41,6.76.69,1.34,1.85,2.36,3.14,3.15,5.37,3.3,4.13,8.86,4.54,15.16,1.62,25.01,25.57,7.49,39.56,16.51,2.13,0,2.89-.86,3.32-1.93.71-1.77,1.93-3.27,3.58-4.23.08-.05.17-.1.25-.15,16.05-9.96,34.65-15.06,53.34-12.3.89.13,1.77.26,2.66.38,12.53,1.76,23.24,8.86,31.39,18.53.22.26.48.44.81.57,7.92,3.13,14.98,8.44,18.17,16.34,1.44,3.56,4.87,3.12,7.63,6.96,4.77,6.65,9.94,13,16.06,18.44,4.3,3.82,8.83,7.56,13.25,9.69,9.15,4.41,17.33,10.57,23.52,18.63.06.08.12.16.19.24,5.37,6.59,9.06,14.4,11.4,22.58.27.93.58,1.81.95,2.6,15.98,23.98,35.71,6.21,47.52,22.82,7.78,10.95,11.65,19.51,23.64,24.85,4.74,2.11,9.43,4.41,13.62,7.47,1.65,1.2,3.38,2.08,5.24,2.61,4.39,1.24,8.6,3.19,12.37,5.76,1.29.88,2.91,1.24,4.99.35.18-10.37,8.69-10.55,8.91-16.64.17-4.88.48-9.79,1.87-14.47.9-3.04-.25-6.11-2.48-8.05-5.42-4.71-8.84-11.3-8.6-18.48,0-.22.01-.43.02-.64.08-2.08,1.02-4.01,2.5-5.46,1.81-1.78,22.86-2.63,24.26-4.69,8.54-12.56-9.52-29.85-15.33-43.88-5.3-12.81-8.16-26.57-21.04-33.68-10.44.23-38.73-25.83-39.45-13.67-1.9,1.75-4.34,2.29-6.67,2.5-4.77.43-9.32-1.67-12.58-5.17-6.49-6.97-17.14-8.71-25.59-12.45-6.1-2.7-9.44-8.8-10.11-15.43-.06-.63-.44-.96-1.55-1.14-2.92-.48-5.69-1.54-8.36-2.81-.29-.14-.58-.27-.88-.39-9.9-4.13-18-11.27-25.57-18.87-.14-.14-.29-.27-.45-.39-2.78-2.1-5.43-4.43-7-7.54-7.39-14.64-35.65,2.4-29.76-9.52,1.22-2.48,3.19-4.51,5.51-6.01,35.5-23.05-6.42-24.77,18.09-40.11,6.55-4.1,14.58-4.35,21.83-1.66,2.91,1.08,5.28-.02,6.57-2.9,1.69-3.79,4.67-6.78,8.24-8.9.75-.44,1.31-.96,1.52-1.58.35-1.04.65-2.1,1.17-3.06,10.37-18.97-22.5-33.27-23.53-52.32-.36-6.62-7.7-9.9-13.32-6.38-.21.13-.43.25-.65.35-52.18,3.11-20.5,11.84-10.72,40.25Z"/>
    <path class="cls-7" d="m357.37,287.51c4.11,20.8,23.17,9.7,35.84,10.94-3.02,10.93,13.85,12.76.06,21.4.03,3.95-2.61,16.52,2.85,17.09-7,6.9-2.34,13.9,2.42,17.15,5.1,11.09,11.67,24.27,20.99,31.62,4.38,1.51,1.84-7.81,7.38-6.65,16.1,21.99-41.58,20.13-35.89,47.13,11.16-1.64,22.22.62,28.49,10.66,1.54,2.46,2.66,5.13,3.94,7.72,1.11,2.25,4.6,6.26,7.38,4.03,2.72-2.17,3.39-4.32,3.59-7.62.23-3.73,3.11-7.3,5.78-9.8,3.09-2.89,6.78-4.87,10.65-6.51,10.07-4.26,21.33-5.2,32.12-5.96s22.29-.96,33.17-3.25c8.64-1.82,17.67-5.39,22.12-13.54.72-1.31,1.3-2.7,1.75-4.13.94-2.96,2.67-5.65,5.26-7.36,16.51-10.89.1-109.42,5.31-131.85,3.97-22.76,3.56-45.05,3.08-67.46-.44-20.57-5.34-41.11-16.29-58.53-.07-.1-.13-.21-.19-.32-.6-1.07-1.56-1.85-2.66-2.4-8.95-4.43,19.18-23.43-18.88-30.09-4.78-5.83-6.61-3.58-12.93-7.34-2.32-4.64-4.33-7.48-8.44-10.64,2.6-20.35-12.16-10.03-20.81-.99-17.48,1.37-19.75-19.13-36.96-20.87-14.96-1.24-6.23-12.01-24.78-5.57-18.78-28.47-76.23,24.17-94.71,30.63-43.43-16.91-77.37-33.69-122.55-50.71,12.52,10.1,4.39,27.25-7.53,34.83-47.2,19.08-26.55,43.65,1.14,60.53,11.53,7.03,24.54,11.08,37.9,13.04,16.51,2.42,30.73,17.97,50.39,19.98,18.47,9.09,16.05,37.53,35.5,45.79,43.66-2.69,62.76,50,45.52,79.03Z"/>
    <g>
      <path class="cls-2" d="m233.56,382.64c12.35,14.51,36.58,13.24,48.24,26.61,9.61,4.06,17.15-4.43,27.13,3.24,2.53,1.94,4.71,4.66,3.74,8-.7,2.39-2.55,4.18-3.48,6.45-1.26,3.1,1.43,5.14,3.94,6.29,1.28.59,2.76.85,4,1.48,1.69.86-.38,1.77-1.32,2.42-2.57,1.79-3.12,5.82.55,6.07,3.03.21,6.11-.79,9.11-1.12,2.33-.25,5.65-.21,4.66,3.06-.93,3.09-3.33,4.14-5.91,5.6-4.47,2.51-8.35,5.92-11.9,9.59-3.19,3.3-6.38,6.96-8.39,11.13-2.8,5.8-9.03,3.94-13.99,3-1.15-.22-4.07-1.05-5.09,0-.74.74-.04,1.91.35,2.65.88,1.65,2.01,3.15,2.82,4.84.5,1.04,1.88,3.96.88,4.98-.13.13-.3.22-.47.31-7.1,3.6-13.65,7.7-19.24,13.43-3.84,3.95-7.09,8.43-9.79,13.23-2.05,3.64-3.72,7.44-5.44,11.24-.92,2.03-1.92,4.98-3.87,6.3-1.84,1.24-3.73-.29-5.05-1.59-3.61-3.56-6.31-8.18-9-12.44-5.44-8.62-10.55-17.44-15.7-26.23-1.66-2.83-3.31-5.66-4.96-8.48-.88-1.5-1.75-3-2.63-4.5-.32-.56-2.3-4.74-2.77-4.74,12.87-3.44,19.51-25.31,22.12-38.55-4.92,1.63-7.62-6.2-7.73-8.26-6.44-14.05-52.01-11.52-23.24-27.08,3.95-6.42,6.69-.12,14.02.48,5.7-7.69,22.95-4.49,18.39-17.39Z"/>
      <path class="cls-2" d="m238.04,350.47c4.05.39,6.66,3.74,7.64,7.69.08.33.37.74.93,1.25.03.03.08.05.14.08,4.39,1.88,3.78,8.1-.96,8.64-18.99,2.18-27.33-19.57-7.75-17.66Z"/>
      <path class="cls-2" d="m316.65,405.77c2.89-.04,4.92,3.12,3.37,5.56-2.87,4.52-12.19-1.01-6.67-4.77.89-.6,2.07-.77,3.3-.79Z"/>
      <path class="cls-2" d="m323.77,465.69c-1.33,2.18-3.03,1.88-4.29.23-1.42-1.85.29-4.48,2.57-4.03h0c1.72.34,2.63,2.3,1.72,3.8Z"/>
      <path class="cls-2" d="m990.41,746.96c-2.26.72-4.55,1.22-6.85,1.47-4.62,9.01-10.61,5.46-19.26,10.13-10.76,10.84,11.39,8.38-5.84,17.46-10.01,8.49-15.41,12.11-3.5,20.93.92,6.22,4.57,9.61,10.23,10.37,10.65,23.3,20.16,57.77,1.12,78.05-9.43,12.82-16.49,5.84-25.88,11.89-5.1,7.88-11.68,16.88-21.34,20.69-14.59,2.31-12.57,5.61-7.21,10.03,7.85,6.48,17.14,11.04,27.06,13.35,2.18.51,4.05,1.41,5.1,2.97.71,1.05,1.07,2.25,1.2,3.52,1.03,10.24,3.21,20.33,7.39,29.73,5.2,11.7,7.89,25.84,5.63,37.25-.79,3.97-6.67,3.06-6.28-.97.56-5.75,6.33-12.36,3.37-17.8-2.07-3.8-4.08-7.62-5.52-11.7-5.61-15.9-16.48-25.94-28.63-34.65-19.34-13.86-31.18-36.63-28.82-60.31.2-2.02-.15-4.26-1.27-6.82-5.42-8.89-13.26-14.12-13.09-18.46.19-4.86-2.29-9.36-5.83-12.69-2.25-2.12-4.08-4.93-5.74-8.51-1.12-2.41.31-5.37,2.94-5.79,4.86-.78,1.26,8.27,6.55,8.79,3.47.35,5.85-3.51,4.19-6.58-6.14-11.42-13.13-5.88-22.88-8.17-1.73-.41-4.6-.74-6.37-.6-7.92.64-9.16-10.09-17.01-9.52-3.61.26-7.23-.39-10.34-2.25-2.9-1.73-3.63-2.66-3.79-5.28-.68-11.27-11.5-19.4-22.25-15.98-.73.23-1.43.5-2.1.81-4.95,2.27-10.29,3.47-15.73,3.26-8.65-.33-17.22,2.02-10.3,6.8,2.63,1.82,4.91,4.07,6.88,6.59.14.18.28.35.44.52,4.38,4.92,7.69,10.64,9.63,16.93.7,2.28,2.09,4.7,5.22,7.49,9.27,8.07,24.53,6.86,30.27,14.62,1.71,2.32,4.16,3.92,6.85,4.96,3.17,1.23,3.3,4.06,3.03,7.73-.33,4.35,1.23,8.51,3.82,12.02,3.14,4.25-3.15,10.32-.79,16.09.9,2.2,1.34,4.56,1.32,6.94-.13,20.7-14.22,7.74-27.61,2.16-3.43-1.43-6.63-3.67-8.34-6.97-.36-.69-1.11-.81-2.07-.7-3.56.4-7.18,0-10.39-1.56-5.48-2.68-11.62-4.23-17.76-4.8-21.6-2.03-41.49-12.35-55.98-28.51-4.44-4.95-9.18-9.41-14.81-12.38-7.46-3.93-10.89-12.81-7.78-20.65.05-.12.1-.25.15-.37,3.47-8.54,11.11-14.55,20.06-16.74,3.43-.84,6.06-2.77,6.77-7.4.23-1.52.88-2.94,1.86-4.13,1.33-1.63,2.08-3.87-.34-5.5-1.11-.75-1.83-1.97-1.73-3.3.17-2.47,1.87-3.2,3.81-3.81,2.43-.76,4.3-2.77,4.74-5.27.16-.89.11-1.34-.11-1.49-4.62-3.21-5.69-6.58-1.05-9.76,7.94-5.44,16.75-9.86,4.42-15.66-2.2-1.03-4.08-2.7-5.16-4.87-.49-.99-.67-1.75-.47-2.33,1.57-4.57,1.49-9.5-1.27-13.46-2.52-3.6-3.12-6.91,3.77-10.91,1.72-25.88-23.64-43.24-39.25-60-15.5-.72-1.67-3.3-14.9-15.59-30.97-14.38-58.42-49.83-96.48-55.9-23.62,1.81-21.01-11.17-27.78-21.8-1.34-2.1-3.48-3.52-5.92-4.01-3.63-.73-6.64,1.36-10.22-.31-2.4-1.12-4.32-3-6.64-4.26-2.96-1.6-6-3.05-9.1-4.37-6.34-2.69-12.92-4.8-19.59-6.5-13.11-3.34-26.57-5.1-40-6.53-13.27-1.41-26.2-5.3-37.86-11.8-4.34-2.42-8.49-5.3-11.67-10.79-2.07-3.57-5.11-6.56-8.96-8.03s.02-5.34-5.02-10.91c-10.76-23.06,27.18-34.1.68-56.96-3.25-2.8-6-6.12-8.52-9.59-.68-.94-1.49-1.76-2.35-2.51-4.54-3.95-5.6-10.22-3.36-15.8.5-1.25-.1-2.3-1.33-3.4-3.08-2.75-5.5-6.2-6.84-10.11s-4.9-5.37-9.43-5.69c-6.64-.47-12.68-3.4-17.66-7.82-.93-.83-2.06-1.2-3.26-1.06-5.99.71-12.06-.91-17.36-3.79-10.7-5.81-23.25-8.65-23.75-19.91-.96-2.27-2.74-3.43-4.77-4.1-4.79-1.59-9.1-4.3-12.41-8.11-2.85-3.27-7.4-5.82-11.72-7.11-4.56-1.36-6.97-6.6-4.68-10.77,7.4-13.5,46.18,12.32,56.78-14.4,2.45-8.5,2.44-17.38.12-25.94.06-14.74,27.77-28.7,35.34-10.55,1.81,27.15,29.22-.56,37.37,14.59,13.13,27.67-16.43,28.16,13.72,70.81,1.86,2.68,4.61,7.59,8.29,7.77,1.4.07,2.71-.58,4.04-1.03,2.21-.75,4.36-1.25,6.17.17,1.56,1.22,2.96,3.23,3.89,4.97,1.43,2.69,1.79,5.64.39,8.42-3.44,6.8-13.33,9.8-19.99,11.93-50.2,31.46,4.17,14.8,10.68,33.67,1.47,4.26,4,8.05,7.25,11.17,13.74,13.22-7.53,18.8-8.03,35.06,3.91,18.83,12.69,37.41,28.63,40.11,9.55,1.62,19.02-3.32,23.84-11.72,10.85-18.87,36.98-7.46,57.16-4.06,11.23.67,27.39-3.84,31.29,6.8,2.16,5.88,7.09,10.2,13.06,12.09,5.19,1.64,7.19,5.33,8.91,10.32,3.41,9.89,8.87,18.99,16.09,26.57,8.17,8.56,15.66,21.21,26.75,16.97,6.27-12.92,10.08,9.2,17.15,16.86,5.83,6.31,9.27,14.41,10.48,22.91.57,4.06,1.64,7.65,3.97,9.94,4.62,3.88,17.79,10.45,23.56,5.44,23.83-21.99,24.59,38.69,51.45,35.67,14.85,14.89,36.8,13.94,30.58-10.43,5.79-5,6.16-8.26,3.02-10.05-6.38-3.62-10.6-10.15-10.32-17.48.22-5.94,1.45-11.3,4.42-11.44,2.72-.13,5.18-1.74,6.81-3.92,8.93-11.94,4.81-30.42,23.4-21.41,1.64.79,2.98,2.04,4.2,3.39,1.5,1.66,4.18.23,7.11-1.09,4.25-1.92,8.29-4.32,11.77-7.41,2.54-2.26,5.36-3.58,7.18-1.13.71.96,1.82,1.52,3.02,1.61,1.32.1,1.88.54,2.34,1.54.86,1.83,2.58,3.1,4.53,3.63,8.04,2.18,10.1,8.79,19.01,9.56,2.31.2,4.52-.68,6.35-2.1,4.59-3.55,13.17.4,16.24,5.38-.13,2.34,1.12,4.15,2.55,5.84,4.18,4.91,9.21,9.08,14.87,12.17,2.62,1.43,4.87,3.19,5.79,5.21,4.11,11.79.73,26.44,13.7,26.05,1.57-.05,3.06.56,4.32,1.5.15.11.31.22.48.31,2.01,1.1,3.76,2.6,5.07,4.49l.86,1.25c1.41,2.04,2.21,4.41,2.46,6.87.23,2.25.88,4.43,2.98,5.06,5.48.36,10.73.45,14.24,3.32,2.68,2.19,6.27,2.67,9.58,1.63,5.26-1.66,6.54,6.2,18.61,13.1,2.22,1.27,4.7,1.99,7.22,2.41,2.14.35,3.68,1.57,4.98,3.24,2.26,2.88,5.33,5.05,8.81,6.21.33.11.65.22.96.34,17.97,6.88,16.67,32.6-1.67,38.44Z"/>
    </g>
    <g>
      <path class="cls-3" d="m20.2,121.38c-2,.5-7.22-.22-7.22-2.17,0-3.02,8.44-3.14,7.22,2.17Z"/>
      <path class="cls-3" d="m364.44,275.08c-.41,3.21-1.29,6.36-3.31,8.63-.6.73-1.39,1.43-2.37,1.54-1.24.14-1.77-.68-2.74-1.19-37.87-19.83-21.1,37.92-39.84,52.1-9.45,10.37-20.56-.5-31.34-1.27-20.28-1.2-47.9,11.21-64.06-5.06-6.54-8.71-8.02-32.13-23.78-26.92,23.51,19.02,7.43,53.72,31.86,69.92,7.27,4.82,8.92,15.11,3.34,21.81-9.12,10.95-25.91-.48-34.6,12.92-.44.68,5.94,4.31,6.56,4.62,2.65,1.32,5.43,2.35,8.19,3.41,5.49,2.11,11.3,4.37,15.27,8.91,1.98,2.26,3.38,5.01,4.08,7.92,1.13,4.71,2.34,9.13,2.16,14-.12,3.49-.79,6.95-1.85,10.27-1.89,5.91-5.17,12.14-10.39,15.75-8.67,6.01-16.38-1.46-20.48-9.08-20.14-35.67-69.82-23.02-102.09-37.55-45.04-34.78-105.55-117.83-63.05-172.9,6-50.56,12.35-25.61,47.19-55.46,12.97-9.73-4.49-17.01-2.77-28.09,3.41-17.23-.83-46.68-23.88-43.25-14.32,15.87-15.65-11.02-26.65-11.92-6.71-2.27-38.38-11.41-27.74-16.48,15.93-.68,23.42-25.18,33.36-.41,8.68,3.95,2.88-7.18,6.71-8.65,17.3,4.63,31.54-16.54,13.15-25.65-5.31-10.56,13.08-1.88,17.58-2.6,12.15-5.12-5.29-18.14,2.68-26.92,31.51-67.44,22.75-14.84,118.8.79,36.11,30.26-41.64,41.78-32.28,69.35,1.29,3.81,4.07,6.95,7.54,8.98,22.36,13.09,39.37,31.74,66.46,27.3.27-.04,1.16.68,1.42.83.48.28.96.56,1.44.84.92.53,1.85,1.06,2.78,1.59,1.71.97,3.43,1.92,5.16,2.85,2.92,1.57,5.87,3.09,8.85,4.54,2.35,1.14,4.73,2.24,7.13,3.29,1.89.83,3.79,1.62,5.7,2.39,1.52.62,3.04,1.22,4.56,1.84,1.25.52,2.5,1.05,3.71,1.64,1.09.53,2.14,1.12,3.15,1.79s1.98,1.45,2.88,2.29c1.04.98,2,2.04,2.9,3.14,1.14,1.39,2.2,2.86,3.21,4.34,1.32,1.93,2.58,3.9,3.81,5.89,1.6,2.58,3.16,5.18,4.71,7.79,1.98,3.34,3.93,6.69,5.89,10.04s4.07,6.98,6.1,10.48c.33.57,1.65.48,2.23.52.67.05,1.36.03,2.02.13,1.39.19,2.77.41,4.14.67,2.59.47,5.17,1.06,7.7,1.77,4.55,1.28,8.95,2.57,13.11,4.85,7.34,4.02,13.59,10.24,17.84,17.47,3.56,6.04,5.67,12.81,6.88,19.68,1.01,5.7,1.55,11.65,1.37,17.5-.07,2.14-.11,4.58-.42,6.99Z"/>
    </g>
  </g>
</svg>