<?xml version="1.0" encoding="UTF-8"?>
<svg id="Capa_2" data-name="Capa 2" xmlns="http://www.w3.org/2000/svg" viewBox="0 0 126.66 171.91">
  <defs>
    <style>
      .cls-1 {
        fill: #535463;
        opacity: .5;
      }
    </style>
  </defs>
  <g id="Capa_1-2" data-name="Capa 1">
    <path class="cls-1" d="m126.66,81.01c0-5.33-2.77-10-6.94-12.68v-.18c.65-3.45,1-7.01,1-10.65s-.35-7.19-1-10.65v-.51h-.09C114.44,19.93,91.16,0,63.23,0S12.01,19.93,6.82,46.34h-.09v.51c-.65,3.45-1,7.01-1,10.65s.35,7.19,1,10.65v.31c-4.05,2.7-6.73,7.31-6.73,12.55s2.67,9.85,6.73,12.55v32.1c0,8.48,6.87,15.35,15.35,15.35h20.21v10.28c0,11.4,9.24,20.63,20.63,20.63h.14c11.4,0,20.63-9.24,20.63-20.63v-10.28h20.69c8.48,0,15.35-6.87,15.35-15.35v-31.97c4.17-2.68,6.94-7.35,6.94-12.68Z"/>
  </g>
</svg>