<?xml version="1.0" encoding="UTF-8"?>
<svg id="Capa_2" data-name="Capa 2" xmlns="http://www.w3.org/2000/svg" viewBox="0 0 126.91 163.56">
  <defs>
    <style>
      .cls-1 {
        fill: #535463;
        opacity: .5;
      }
    </style>
  </defs>
  <g id="Capa_1-2" data-name="Capa 1">
    <path class="cls-1" d="m126.91,72.48c0,8.34-6.77,15.11-15.11,15.11-.36,0-.72-.01-1.08-.04-2.97,13.87-11.9,25.53-23.97,32.19.07.71.11,1.43.11,2.16v20.91c0,11.46-9.29,20.75-20.75,20.75-5.73,0-10.92-2.32-14.67-6.08-3.76-3.75-6.08-8.94-6.08-14.67v-20.6c-14.68-5.93-25.79-18.86-29.18-34.66-.36.03-.72.04-1.08.04-8.34,0-15.1-6.77-15.1-15.11s6.76-15.11,15.1-15.11v-9.03C15.1,21.64,36.75,0,63.45,0c13.35,0,25.44,5.41,34.19,14.16s14.16,20.83,14.16,34.18v9.03c8.34,0,15.11,6.77,15.11,15.11Z"/>
  </g>
</svg>