<?xml version="1.0" encoding="UTF-8"?>
<svg xmlns="http://www.w3.org/2000/svg" viewBox="0 0 130.25 184.64">
  <defs>
    <style>
      .cls-1 {
        mix-blend-mode: lighten;
      }

      .cls-1, .cls-2, .cls-3, .cls-4 {
        fill: #535463;
      }

      .cls-2 {
        mix-blend-mode: darken;
      }

      .cls-5 {
        opacity: .5;
      }

      .cls-6 {
        isolation: isolate;
      }

      .cls-4 {
        mix-blend-mode: soft-light;
      }
    </style>
  </defs>
  <g class="cls-6">
    <g id="Capa_2" data-name="Capa 2">
      <g id="Capa_1-2" data-name="Capa 1">
        <g class="cls-5">
          <g>
            <rect class="cls-3" x="92.13" y="89.64" width="30.22" height="38.12" rx="15.11" ry="15.11"/>
            <rect class="cls-3" x="12.23" y="89.61" width="30.22" height="38.12" rx="15.11" ry="15.11"/>
            <g>
              <path class="cls-3" d="m71.65,124.53c-3.4,3.46-8.96,3.52-12.43.12"/>
              <path class="cls-3" d="m76.13,97.84c-5.84,5.96-15.41,6.05-21.37.21"/>
              <circle class="cls-3" cx="53.69" cy="75.57" r="3.21"/>
              <path class="cls-3" d="m86.97,70.24c-3.64-4.67-10.17-6.02-15.36-3.17-.31.17-.24.63.1.7l14.89,3.07c.34.07.59-.33.37-.6Z"/>
              <path class="cls-3" d="m42.74,70.24c3.64-4.67,10.17-6.02,15.36-3.17.31.17.24.63-.1.7l-14.89,3.07c-.34.07-.59-.33-.37-.6Z"/>
              <path class="cls-3" d="m48.68,83.36c-3.42,0-6.19-2.77-6.19-6.19"/>
              <path class="cls-3" d="m82.04,83.36c3.42,0,6.19-2.77,6.19-6.19"/>
              <path class="cls-3" d="m68.57,88.01c2.62,0,4-3.14,2.2-5.04-1.34-1.41-3.23-2.3-5.33-2.3-2.1,0-3.99.88-5.33,2.3-1.8,1.9-.41,5.04,2.2,5.04h6.26Z"/>
              <path class="cls-3" d="m71.65,124.53c-3.4,3.46-8.96,3.52-12.43.12"/>
              <path class="cls-3" d="m76.13,97.84c-5.84,5.96-15.41,6.05-21.37.21"/>
              <path class="cls-3" d="m86.97,70.24c-3.64-4.67-10.17-6.02-15.36-3.17-.31.17-.24.63.1.7l14.89,3.07c.34.07.59-.33.37-.6Z"/>
              <path class="cls-3" d="m48.68,83.36c-3.42,0-6.19-2.77-6.19-6.19"/>
              <path class="cls-3" d="m82.04,83.36c3.42,0,6.19-2.77,6.19-6.19"/>
              <path class="cls-3" d="m68.57,88.01c2.62,0,4-3.14,2.2-5.04-1.34-1.41-3.23-2.3-5.33-2.3-2.1,0-3.99.88-5.33,2.3-1.8,1.9-.41,5.04,2.2,5.04h6.26Z"/>
              <rect class="cls-3" x="47.33" y="122.22" width="41.49" height="62.41" rx="20.75" ry="20.75"/>
              <circle class="cls-3" cx="17.07" cy="93.55" r="15.11"/>
              <circle class="cls-3" cx="113.76" cy="93.55" r="15.11"/>
              <rect class="cls-3" x="21.97" y="56.84" width="92.43" height="93.89" rx="46.22" ry="46.22"/>
              <rect class="cls-3" x="17.07" y="21.07" width="96.7" height="125.71" rx="48.35" ry="48.35"/>
              <path class="cls-3" d="m68.57,88.01c2.62,0,4-3.14,2.2-5.04-1.34-1.41-3.23-2.3-5.33-2.3-2.1,0-3.99.88-5.33,2.3-1.8,1.9-.41,5.04,2.2,5.04h6.26Z"/>
              <ellipse class="cls-2" cx="53.69" cy="74.87" rx="3.9" ry="4.02"/>
              <path class="cls-2" d="m42.74,70.48c3.64-4.67,10.17-6.02,15.36-3.17.31.17.24.63-.1.7l-14.89,3.07c-.34.07-.59-.33-.37-.6Z"/>
              <g>
                <circle class="cls-3" cx="53.69" cy="75.57" r="3.21"/>
                <circle class="cls-1" cx="53.69" cy="75.38" r="2.35"/>
                <circle class="cls-4" cx="55.04" cy="73.97" r=".76"/>
              </g>
              <path class="cls-3" d="m42.74,70.24c3.64-4.67,10.17-6.02,15.36-3.17.31.17.24.63-.1.7l-14.89,3.07c-.34.07-.59-.33-.37-.6Z"/>
              <ellipse class="cls-2" cx="77.05" cy="74.87" rx="3.9" ry="4.02"/>
              <path class="cls-2" d="m86.95,70.49c-3.64-4.67-10.17-6.02-15.36-3.17-.31.17-.24.63.1.7l14.89,3.07c.34.07.59-.33.37-.6Z"/>
              <g>
                <circle class="cls-3" cx="77.05" cy="75.57" r="3.21"/>
                <circle class="cls-1" cx="77.05" cy="75.38" r="2.35"/>
                <circle class="cls-4" cx="78.57" cy="73.97" r=".76"/>
              </g>
              <path class="cls-3" d="m86.97,70.24c-3.64-4.67-10.17-6.02-15.36-3.17-.31.17-.24.63.1.7l14.89,3.07c.34.07.59-.33.37-.6Z"/>
            </g>
            <path class="cls-3" d="m130.25,72.48c0,5.75-3.21,10.75-7.94,13.3-1.3,4.95-4.64,8.48-8.55,8.48v-6.74c-7.69-.69-13.72-7.17-13.72-15.04,0-4.22,1.72-8.03,4.5-10.76-5.36-1.31-9.59-5.49-10.99-10.81-5.56-.92-10.1-4.88-11.84-10.11-4.23,4.01-9.94,6.46-16.23,6.46s-12.45-2.65-16.73-6.94c-1.56,5.57-6.24,9.83-12.05,10.79-1.4,5.33-5.64,9.5-11,10.81,2.78,2.73,4.51,6.55,4.51,10.76,0,7.68-5.72,14.02-13.14,14.98v6.8c-3.82,0-7.1-3.37-8.45-8.14-5.1-2.41-8.62-7.61-8.62-13.64,0-7.09,4.89-13.05,11.49-14.67-2.78-2.73-4.51-6.54-4.51-10.75,0-7.5,5.47-13.72,12.63-14.91,1.7-6.48,7.6-11.25,14.61-11.25,2.79,0,5.4.75,7.64,2.08.23-12.84,10.72-23.18,23.62-23.18s23.06,10.02,23.6,22.58c2.08-1.08,4.44-1.69,6.95-1.69,7.01,0,12.9,4.78,14.6,11.25,7.17,1.18,12.63,7.41,12.63,14.91,0,4.22-1.72,8.03-4.5,10.76,6.6,1.62,11.49,7.57,11.49,14.67Z"/>
          </g>
        </g>
      </g>
    </g>
  </g>
</svg>